<svg width="164" height="96" viewBox="0 0 164 96" fill="none" xmlns="http://www.w3.org/2000/svg">
<path d="M0.000199318 95.1055L13.6962 2.56146H32.1922L18.5602 95.1055H0.000199318ZM25.9872 95.1055L35.9072 28.9295H53.9552L52.8032 37.4415C54.2965 35.8201 55.9179 34.3268 57.6672 32.9615C59.4592 31.5961 61.5712 30.4868 64.0032 29.6335C66.4352 28.7801 69.3365 28.3535 72.7072 28.3535C76.6325 28.3535 80.1525 29.2921 83.2672 31.1695C86.4245 33.0041 88.8139 35.6281 90.4352 39.0415C92.0565 42.4121 92.5259 46.4015 91.8432 51.0095L85.2512 95.1055H66.7552L72.9632 53.2495C73.4752 49.9641 72.8139 47.4468 70.9792 45.6975C69.1872 43.9055 66.8832 43.0095 64.0672 43.0095C62.1045 43.0095 60.1632 43.3721 58.2432 44.0975C56.3232 44.7801 54.6805 45.8041 53.3152 47.1695C51.9925 48.5348 51.1819 50.2415 50.8832 52.2895L44.4832 95.1055H25.9872ZM91.9022 95.1055L105.982 0.00146484H124.478L116.158 56.3855L143.55 28.9295H163.326L135.998 55.2975L154.238 95.1055H135.87L122.942 66.5615L113.214 75.9055L110.334 95.1055H91.9022Z" fill="white"/>
</svg>
